<?xml version="1.0" encoding="UTF-8"?>
<svg version="1.1" xmlns="http://www.w3.org/2000/svg" width="512" height="512">
<path d="M0 0 C2.87830284 1.36248837 4.68649829 3.23846101 6.92962646 5.4992981 C7.39838196 5.96761551 7.86713745 6.43593292 8.35009766 6.91844177 C9.89391815 8.46434817 11.4268475 10.02059953 12.9598999 11.57717896 C14.02969884 12.65257455 15.10016315 13.72730862 16.17126465 14.80140686 C18.98583071 17.6274162 21.79127069 20.46231913 24.59490967 23.29916382 C27.45851518 26.19348123 30.33065351 29.07930347 33.2020874 31.96585083 C38.83287307 37.62879153 44.45404673 43.30115543 50.0692749 48.97952271 C48.61730244 52.3286378 46.79296918 54.4805443 44.18963623 57.0227356 C42.99247734 58.20030174 42.99247734 58.20030174 41.77113342 59.4016571 C40.90659042 60.24332932 40.04204742 61.08500153 39.15130615 61.95217896 C37.32094334 63.75722886 35.4908747 65.56257711 33.66107178 67.36819458 C30.78062328 70.2014176 27.89537035 73.02965843 25.00457764 75.85232544 C22.21108982 78.58489234 19.43059499 81.33018144 16.65130615 84.07717896 C15.79688431 84.90468155 14.94246246 85.73218414 14.06214905 86.58476257 C1.22621234 99.31412294 -6.71540639 115.04176982 -7.2432251 133.22952271 C-6.90519067 149.24859882 -1.37214537 165.40833208 10.0692749 176.97952271 C23.40829093 188.59614068 38.57863548 194.79843976 56.3973999 194.32327271 C84.27583008 191.71337711 100.65091698 172.561404 119.3192749 153.79202271 C120.95054972 152.15572009 122.5820585 150.51965068 124.21380615 148.88381958 C128.16832652 144.91840133 132.11996365 140.9501286 136.0692749 136.97952271 C139.76972434 138.52935471 142.11508577 140.78346942 144.92962646 143.61282349 C145.39838196 144.08128693 145.86713745 144.54975037 146.35009766 145.03240967 C147.89148923 146.57518965 149.42568363 148.12492235 150.9598999 149.67483521 C152.02991745 150.74858462 153.10037872 151.82189204 154.17126465 152.89477539 C156.98359369 155.71472722 159.7898638 158.54063425 162.59490967 161.36782837 C165.46033013 164.25373641 168.33144658 167.13396527 171.2020874 170.01467896 C176.83007003 175.6640876 182.45166375 181.31980095 188.0692749 186.97952271 C183.54492482 192.39628025 178.76176414 197.44754385 173.77630615 202.44046021 C172.98963058 203.23046417 172.20295502 204.02046814 171.3924408 204.83441162 C169.73386736 206.49802457 168.07395653 208.16030514 166.41278076 209.82131958 C163.90149823 212.33478225 161.39832213 214.85612927 158.89544678 217.37796021 C143.08791254 233.24244736 143.08791254 233.24244736 134.0692749 239.97952271 C133.0958313 240.71138794 133.0958313 240.71138794 132.10272217 241.45803833 C109.12050616 258.2224952 82.42067138 266.43117879 54.0692749 266.35452271 C53.34516418 266.35431122 52.62105347 266.35409973 51.875 266.35388184 C39.8975693 266.31906852 28.61590831 265.29217072 17.0692749 261.97952271 C16.40379639 261.79760376 15.73831787 261.61568481 15.05267334 261.42825317 C-18.73490361 252.0091454 -46.36950744 228.14038144 -63.6807251 198.10452271 C-80.71602696 167.48307831 -83.89968325 130.60986142 -74.9307251 96.97952271 C-65.63547918 65.7653296 -45.59212757 43.26504323 -23.00982666 20.63308716 C-20.39518468 18.00631743 -17.7998095 15.36137659 -15.2041626 12.71585083 C-13.541243 11.04348964 -11.87722196 9.37222279 -10.2119751 7.70217896 C-9.43906128 6.90973282 -8.66614746 6.11728668 -7.86981201 5.30082703 C-7.14805786 4.5851506 -6.42630371 3.86947418 -5.68267822 3.1321106 C-5.05268921 2.49705093 -4.4227002 1.86199127 -3.77362061 1.20768738 C-1.9307251 -0.02047729 -1.9307251 -0.02047729 0 0 Z " fill="#07A3CC" transform="translate(88.93072509765625,237.02047729492188)"/>
<path d="M0 0 C1.05058594 0.350625 2.10117187 0.70125 3.18359375 1.0625 C23.13878237 8.53596466 38.13792556 24.37437336 47.55859375 43.09765625 C48.86111027 46.03121719 49.97068216 48.96048497 51 52 C51.31839844 52.89847656 51.63679687 53.79695313 51.96484375 54.72265625 C56.65609534 70.78532875 55.79986627 90.40172486 50 106 C49.65324219 106.99515625 49.30648437 107.9903125 48.94921875 109.015625 C47.44749051 113.07434997 46.26719365 116.07526007 43 119 C42.30777344 117.44152344 42.30777344 117.44152344 41.6015625 115.8515625 C35.01815088 101.55718414 26.97386612 93.48675932 13 86 C11.515 85.01 11.515 85.01 10 84 C10.33773437 83.36835938 10.67546875 82.73671875 11.0234375 82.0859375 C16.80570036 70.4879883 18.51161971 58.58589365 15 46 C10.48844682 34.05765334 3.43855266 25.55272275 -7.77734375 19.44140625 C-19.96604886 13.98973087 -31.45904295 13.8090979 -44 18 C-55.75114157 22.94118082 -63.58037098 30.57895306 -68.84765625 42.1640625 C-73.97474641 54.78191828 -72.55671296 66.34431182 -68 79 C-67.32986814 80.9988416 -66.66219074 82.99851358 -66 85 C-66.82242188 85.40089844 -67.64484375 85.80179687 -68.4921875 86.21484375 C-83.20618885 93.70777053 -92.70037141 103.10111424 -98 119 C-106.8654405 111.11333425 -109.28725899 96.2160512 -110.16845703 84.82177734 C-111.41500289 60.8140342 -104.10736781 38.98422632 -88 21 C-65.34564627 -2.62371594 -30.93843559 -10.60347736 0 0 Z " fill="#1E5072" transform="translate(448,229)"/>
<path d="M0 0 C1.29916894 1.09532958 2.5918714 2.1984229 3.875 3.3125 C4.885625 4.075625 5.89625 4.83875 6.9375 5.625 C20.65295551 18.1731827 30.88118415 37.42378339 32.05200195 56.14233398 C32.45466835 75.30508327 30.56949967 90.12637232 21.875 107.3125 C18.89486819 104.33236819 17.46512859 100.50345988 15.70507812 96.71875 C12.33814078 89.73104855 7.96365139 85.0324248 1.5 80.6875 C0.64498901 80.10947632 0.64498901 80.10947632 -0.22729492 79.51977539 C-4.09834919 76.92565627 -8.01742828 74.50957325 -12.125 72.3125 C-11.78726563 71.68085937 -11.44953125 71.04921875 -11.1015625 70.3984375 C-5.31929964 58.8004883 -3.61338029 46.89839365 -7.125 34.3125 C-12.14935211 21.01274442 -20.42882014 12.14853877 -33.328125 6.31640625 C-45.33620135 1.52692542 -57.15225213 2.52653043 -68.90234375 7.484375 C-73.34590141 9.59849054 -76.81816909 11.59231523 -80.125 15.3125 C-80.785 15.3125 -81.445 15.3125 -82.125 15.3125 C-82.39570313 15.89128906 -82.66640625 16.47007813 -82.9453125 17.06640625 C-84.12720886 19.31670561 -85.48859608 21.20999626 -87 23.25 C-93.21810956 32.56192387 -95.47110656 43.24011366 -94.125 54.3125 C-93.06227549 58.75707214 -91.67200161 63.01590063 -90.125 67.3125 C-89.45486814 69.3113416 -88.78719074 71.31101358 -88.125 73.3125 C-88.94742188 73.71339844 -89.76984375 74.11429687 -90.6171875 74.52734375 C-105.33118885 82.02027053 -114.82537141 91.41361424 -120.125 107.3125 C-128.37855157 100.01866373 -130.90168563 85.76528441 -132.125 75.3125 C-133.53035806 51.74279334 -127.90955932 29.79698454 -112.24951172 11.59082031 C-102.63666847 0.90229479 -91.4496676 -6.48949165 -78.125 -11.6875 C-77.01125 -12.12320312 -75.8975 -12.55890625 -74.75 -13.0078125 C-49.87860446 -21.09101605 -20.65090464 -15.84273756 0 0 Z " fill="#1E5072" transform="translate(470.125,26.6875)"/>
<path d="M0 0 C2.48768048 1.92017837 4.81257601 3.92741501 7.125 6.0546875 C7.95386719 6.79203125 8.78273438 7.529375 9.63671875 8.2890625 C24.38276433 22.1092461 33.63965605 41.42948258 34.4609375 61.71875 C34.72754657 79.33692211 32.23353569 93.27007135 24.125 109.0546875 C21.20403221 107.5942036 21.14315344 105.6577357 20.0625 102.6171875 C14.46208939 88.76440715 2.56022021 81.24061393 -9.875 74.0546875 C-9.52566406 73.23484375 -9.17632812 72.415 -8.81640625 71.5703125 C-8.36136719 70.49265625 -7.90632813 69.415 -7.4375 68.3046875 C-6.98503906 67.23734375 -6.53257812 66.17 -6.06640625 65.0703125 C-2.04470577 54.89079522 -2.52242305 41.97627905 -6.48828125 31.83203125 C-12.41274131 19.9664225 -21.29719859 11.40770051 -33.875 7.0546875 C-45.16123798 3.57128072 -56.96360231 4.17698835 -67.6484375 9.4140625 C-70.13960264 10.86537192 -72.51189643 12.4043333 -74.875 14.0546875 C-75.926875 14.7765625 -76.97875 15.4984375 -78.0625 16.2421875 C-87.14233503 25.32202253 -91.97120124 36.78943646 -92.375 49.5546875 C-92.18572785 56.65239318 -90.48502867 62.51056452 -87.875 69.0546875 C-87.1978348 71.05115732 -86.52840731 73.05031644 -85.875 75.0546875 C-86.60203125 75.36019531 -87.3290625 75.66570312 -88.078125 75.98046875 C-100.02240399 81.41664701 -111.01055642 89.95011782 -115.828125 102.546875 C-116.56741764 104.70426535 -117.25060501 106.86169045 -117.875 109.0546875 C-118.535 109.0546875 -119.195 109.0546875 -119.875 109.0546875 C-129.80134518 87.04968281 -134.3214417 63.45043484 -125.875 40.0546875 C-117.5053566 19.21272907 -102.62091286 1.13168055 -81.66796875 -7.83984375 C-54.43312386 -18.63992275 -24.45172404 -16.54478067 0 0 Z " fill="#0E8AB1" transform="translate(253.875,24.9453125)"/>
<path d="M0 0 C1.42698222 0.91130413 2.82142458 1.87470434 4.1875 2.875 C13.35401296 9.16190116 24.09567918 11.19425078 35.05078125 9.5390625 C41.78084237 8.19463196 47.08122997 6.2381449 52.78125 2.40234375 C55.25487039 0.83891114 57.14045564 -0.30626439 60 -1 C70.11715594 2.1891035 79.0706696 8.5615791 84.62109375 17.65625 C88.37063262 24.87915773 90.37578952 31.80355905 89 40 C87.18488039 43.03886155 84.82114098 44.90574759 82 47 C80.91138672 47.85851562 80.91138672 47.85851562 79.80078125 48.734375 C61.00891838 62.77391552 38.21157964 68.65169498 15.01953125 65.5390625 C0.85559703 63.00179294 -11.51400878 57.72232434 -23 49 C-23.97839844 48.27554688 -24.95679688 47.55109375 -25.96484375 46.8046875 C-32.48522263 41.55546243 -32.48522263 41.55546243 -33.72265625 37.81640625 C-33.82235685 35.3845785 -33.52508058 33.37647583 -33 31 C-32.83628906 30.09894531 -32.67257813 29.19789063 -32.50390625 28.26953125 C-30.25122296 18.12546053 -24.37487984 10.98205703 -16 5 C-4.35641121 -1.91431622 -4.35641121 -1.91431622 0 0 Z " fill="#0E8AB1" transform="translate(178,109)"/>
<path d="M0 0 C0.59683594 0.44085938 1.19367188 0.88171875 1.80859375 1.3359375 C2.41058594 1.72652344 3.01257813 2.11710937 3.6328125 2.51953125 C4.55513672 3.14021484 4.55513672 3.14021484 5.49609375 3.7734375 C9.73108921 6.4519141 13.99805126 8.00278328 18.80859375 9.3359375 C19.61296875 9.5628125 20.41734375 9.7896875 21.24609375 10.0234375 C33.38086523 11.50328768 44.57380072 9.10410708 54.80859375 2.3359375 C55.79472656 1.48902344 55.79472656 1.48902344 56.80078125 0.625 C58.80859375 -0.6640625 58.80859375 -0.6640625 60.81640625 -0.546875 C71.7730577 3.37487847 81.28637735 10.56896696 87.19140625 20.7109375 C90.06122017 26.9723497 91.29712635 33.54332989 89.80859375 40.3359375 C82.68545422 52.47086681 63.18516626 60.36425065 50.5546875 64.3671875 C29.05682022 69.84952437 5.75804228 66.38987595 -13.453125 55.484375 C-16.46970151 53.54542313 -19.33778236 51.50691423 -22.19140625 49.3359375 C-23.16980469 48.59988281 -24.14820313 47.86382812 -25.15625 47.10546875 C-31.70683991 41.76761077 -31.70683991 41.76761077 -32.87890625 38.3046875 C-32.94654034 36.17421377 -32.66437238 34.41217863 -32.19140625 32.3359375 C-32.10117187 31.62695312 -32.0109375 30.91796875 -31.91796875 30.1875 C-30.51796521 21.32081094 -25.60731871 13.63070767 -18.67578125 8.015625 C-15.53000976 5.88876692 -12.30245928 4.03694761 -8.94140625 2.2734375 C-8.33876953 1.94964111 -7.73613281 1.62584473 -7.11523438 1.29223633 C-2.79177986 -0.8459939 -2.79177986 -0.8459939 0 0 Z " fill="#1E5072" transform="translate(391.19140625,322.6640625)"/>
<path d="M0 0 C1.42698222 0.91130413 2.82142458 1.87470434 4.1875 2.875 C13.55471945 9.29955676 24.65748303 11.25772386 35.82421875 9.57421875 C42.86517556 8.07398874 48.42610336 5.34930545 54.50390625 1.5234375 C57 0 57 0 60 -1 C62.39456801 -0.02628746 64.59423532 0.9949588 66.875 2.1875 C67.48730469 2.49236328 68.09960938 2.79722656 68.73046875 3.11132812 C78.33548867 8.01667556 84.62251012 15.14844285 88.29296875 25.28515625 C89.59352677 30.27901163 90.04345494 34.91945388 89 40 C87.18149887 43.07925111 84.871465 44.91495424 82 47 C80.91138672 47.85658203 80.91138672 47.85658203 79.80078125 48.73046875 C60.95012292 62.84509391 38.12800652 68.73215721 14.84375 65.50390625 C6.7378588 64.021734 -0.58991839 61.58222177 -8 58 C-8.91265625 57.56945312 -9.8253125 57.13890625 -10.765625 56.6953125 C-18.91826311 52.57240694 -27.87579881 46.68630178 -33 39 C-33.72376069 28.52054828 -30.65818749 19.37801398 -23.80078125 11.4609375 C-18.50419724 6.36052327 -7.85038969 -3.40344093 0 0 Z " fill="#1E5072" transform="translate(392,109)"/>
<path d="M0 0 C8.14638935 5.86195213 12.46285348 12.72311281 14.78515625 22.50390625 C16.35954357 32.61979722 13.49430328 41.98459992 7.85546875 50.30859375 C2.02748244 57.80982187 -6.38305655 62.0695085 -15.75 63.25 C-24.20981924 63.99208941 -32.58678518 62.12137716 -39.6328125 57.26171875 C-47.58873237 50.38637905 -53.07932226 43.01954369 -54.00390625 32.30859375 C-54.39194346 21.70641587 -52.38473063 13.89792286 -45.375 5.8125 C-32.83038981 -7.05794422 -15.41782754 -9.67494547 0 0 Z " fill="#1E5071" transform="translate(439.75,45.75)"/>
<path d="M0 0 C7.82271192 6.78952355 12.23490853 15.08639391 13.06640625 25.3828125 C13.08166362 34.81186869 10.38096867 43.95052564 4.05859375 51.05859375 C-4.18334432 58.84024906 -12.99951507 62.18731114 -24.25390625 62.00390625 C-33.87748039 61.25930854 -42.43954372 56.97708298 -48.78515625 49.65625 C-55.164228 40.64679558 -57.05682664 31.76682219 -55.9296875 20.796875 C-54.17539104 12.03708803 -49.70737943 5.54034134 -42.9296875 -0.203125 C-29.09401234 -8.94144615 -13.60694212 -9.85162117 0 0 Z " fill="#1E5071" transform="translate(441.9296875,261.203125)"/>
<path d="M0 0 C7.30045026 5.23306612 12.82803068 12.40191315 14.3125 21.375 C15.37605148 33.45960374 13.76854203 43.02236674 6.0625 52.55859375 C-1.02693847 59.91705109 -9.60437148 62.68819517 -19.5625 63.8125 C-28.70912827 63.37963488 -38.25839026 59.98024974 -44.6875 53.375 C-51.85306076 44.70434428 -54.35944862 36.13642722 -54.10546875 24.94921875 C-53.03034403 15.75539525 -48.93157794 7.59736891 -41.72265625 1.79296875 C-28.83002737 -7.51963313 -13.63925158 -8.3222552 0 0 Z " fill="#0E8AB1" transform="translate(225.6875,45.625)"/>
<path d="M0 0 C3.63343559 1.53824946 5.98907908 3.71855582 8.78442383 6.47802734 C9.47533615 7.15645439 9.47533615 7.15645439 10.1802063 7.84858704 C11.69459811 9.33896417 13.20129608 10.83681808 14.70703125 12.3359375 C15.75738606 13.37732427 16.80781746 14.41863379 17.85832214 15.45986938 C20.05502687 17.64010821 22.24732083 19.82468148 24.43725586 22.01171875 C27.24798777 24.81704854 30.07454498 27.60584001 32.90526295 30.39098167 C35.07805993 32.53409372 37.23957359 34.6883149 39.39807701 36.84581375 C40.43584978 37.87937241 41.47775633 38.90879726 42.52378273 39.93400192 C43.98175447 41.36522404 45.42261224 42.81381788 46.86254883 44.26318359 C47.68765457 45.08321869 48.51276031 45.90325378 49.36286926 46.74813843 C51 49 51 49 50.9395752 51.08882141 C49.89012381 53.22349783 48.77342015 54.62030413 47.10424805 56.31567383 C46.19276253 57.25102715 46.19276253 57.25102715 45.26286316 58.20527649 C44.6024855 58.86585556 43.94210785 59.52643463 43.26171875 60.20703125 C42.584543 60.89182053 41.90736725 61.5766098 41.20967102 62.28215027 C39.77688277 63.725737 38.34010401 65.16537244 36.8996582 66.60131836 C34.69221743 68.80778466 32.5069644 71.03471359 30.32226562 73.26367188 C28.92838563 74.66275699 27.53324509 76.06058763 26.13671875 77.45703125 C25.48241379 78.12773148 24.82810883 78.7984317 24.15397644 79.48945618 C23.53686295 80.09726425 22.91974945 80.70507233 22.28393555 81.33129883 C21.74512253 81.87216629 21.20630951 82.41303375 20.65116882 82.97029114 C19 84 19 84 17.098526 83.94927979 C14.17743345 82.62790749 12.39743199 80.75583277 10.13964844 78.48022461 C9.67089294 78.0119072 9.20213745 77.54358978 8.71917725 77.06108093 C7.17535675 75.51517453 5.6424274 73.95892317 4.109375 72.40234375 C3.03957606 71.32694816 1.96911176 70.25221408 0.89801025 69.17811584 C-1.91655581 66.35210651 -4.72199579 63.51720358 -7.52563477 60.68035889 C-10.38924028 57.78604148 -13.26137861 54.90021924 -16.1328125 52.01367188 C-21.76359817 46.35073117 -27.38477183 40.67836727 -33 35 C-31.67005617 32.04734888 -30.22220684 29.97649784 -27.92724609 27.70019531 C-27.30675385 27.07985413 -26.6862616 26.45951294 -26.04696655 25.82037354 C-25.37920197 25.16293152 -24.71143738 24.5054895 -24.0234375 23.828125 C-23.33819 23.1457074 -22.6529425 22.46328979 -21.94692993 21.76019287 C-19.76094155 19.58538402 -17.56809571 17.41763928 -15.375 15.25 C-13.89016745 13.7752001 -12.40578694 12.29994494 -10.921875 10.82421875 C-7.2864709 7.21084552 -3.64490176 3.60379147 0 0 Z " fill="#13779C" transform="translate(267,332)"/>
<path d="M0 0 C2.92109255 1.32137229 4.70109401 3.19344702 6.95887756 5.46905518 C7.42763306 5.93737259 7.89638855 6.40569 8.37934875 6.88819885 C9.92316925 8.43410525 11.4560986 9.99035661 12.989151 11.54693604 C14.05894994 12.62233163 15.12941424 13.6970657 16.20051575 14.77116394 C19.01508181 17.59717328 21.82052179 20.43207621 24.62416077 23.2689209 C27.48776628 26.16323831 30.35990461 29.04906055 33.2313385 31.93560791 C38.86212417 37.59854861 44.48329783 43.27091251 50.098526 48.94927979 C48.76858217 51.9019309 47.32073284 53.97278195 45.02577209 56.24908447 C44.40527985 56.86942566 43.7847876 57.48976685 43.14549255 58.12890625 C42.47772797 58.78634827 41.80996338 59.44379028 41.1219635 60.12115479 C40.436716 60.80357239 39.75146851 61.48598999 39.04545593 62.18908691 C36.85946755 64.36389577 34.66662171 66.53164051 32.473526 68.69927979 C30.98869345 70.17407968 29.50431294 71.64933484 28.020401 73.12506104 C24.3849969 76.73843427 20.74342776 80.34548832 17.098526 83.94927979 C13.46509041 82.41103032 11.10944692 80.23072396 8.31410217 77.47125244 C7.85349396 77.01896774 7.39288574 76.56668304 6.9183197 76.10069275 C5.40392789 74.61031561 3.89722992 73.1124617 2.39149475 71.61334229 C1.34113994 70.57195552 0.29070854 69.53064599 -0.75979614 68.4894104 C-2.95650087 66.30917158 -5.14879483 64.12459831 -7.33872986 61.93756104 C-10.14946176 59.13223125 -12.97601897 56.34343977 -15.80673695 53.55829811 C-17.97953393 51.41518607 -20.14104759 49.26096488 -22.29955101 47.10346603 C-23.33732378 46.06990738 -24.37923033 45.04048252 -25.42525673 44.01527786 C-26.88322847 42.58405574 -28.32408623 41.1354619 -29.76402283 39.68609619 C-30.58912857 38.8660611 -31.41423431 38.046026 -32.26434326 37.20114136 C-33.901474 34.94927979 -33.901474 34.94927979 -33.84104919 32.86045837 C-32.79159781 30.72578195 -31.67489415 29.32897565 -30.00572205 27.63360596 C-29.39806503 27.01003708 -28.79040802 26.3864682 -28.16433716 25.7440033 C-27.17377068 24.75313469 -27.17377068 24.75313469 -26.16319275 23.74224854 C-25.486017 23.05745926 -24.80884125 22.37266998 -24.11114502 21.66712952 C-22.67835677 20.22354278 -21.24157801 18.78390735 -19.8011322 17.34796143 C-17.59369143 15.14149513 -15.4084384 12.9145662 -13.22373962 10.68560791 C-11.82985963 9.2865228 -10.43471909 7.88869215 -9.03819275 6.49224854 C-8.38388779 5.82154831 -7.72958282 5.15084808 -7.05545044 4.45982361 C-6.43833694 3.85201553 -5.82122345 3.24420746 -5.18540955 2.61798096 C-4.64659653 2.07711349 -4.10778351 1.53624603 -3.55264282 0.97898865 C-1.901474 -0.05072021 -1.901474 -0.05072021 0 0 Z " fill="#099DC4" transform="translate(130.90147399902344,195.05072021484375)"/>
<path d="M0 0 C2.37272998 3.55909497 2.62685382 4.80548879 2 9 C0.16766543 11.42922291 -1.54382908 13.38640534 -3.6953125 15.4921875 C-4.28037567 16.08299103 -4.86543884 16.67379456 -5.4682312 17.28250122 C-6.70680397 18.52514926 -7.95295579 19.76028295 -9.20605469 20.98828125 C-11.11884452 22.8689479 -12.99752588 24.77946234 -14.875 26.6953125 C-16.08401843 27.90036595 -17.29489686 29.10355677 -18.5078125 30.3046875 C-19.06743683 30.87645721 -19.62706116 31.44822693 -20.2036438 32.037323 C-22.90364057 34.64277382 -24.52199095 35.9375462 -28.29248047 36.43017578 C-31 36 -31 36 -32.8125 34.8125 C-34.40454304 32.38253957 -34.93185568 30.93020585 -35 28 C-32.49389025 23.78412795 -29.61065037 20.35437603 -26.15625 16.890625 C-25.23972656 15.97152344 -24.32320313 15.05242187 -23.37890625 14.10546875 C-22.90598145 13.6367334 -22.43305664 13.16799805 -21.94580078 12.68505859 C-20.49662672 11.24665178 -19.05850827 9.79780426 -17.62109375 8.34765625 C-16.70457031 7.43371094 -15.78804688 6.51976562 -14.84375 5.578125 C-14.01037109 4.74700195 -13.17699219 3.91587891 -12.31835938 3.05957031 C-8.07416257 -0.710864 -5.57860203 -1.57656144 0 0 Z " fill="#147096" transform="translate(315,284)"/>
<path d="M0 0 C2.74658203 0.45751953 2.74658203 0.45751953 5.18408203 2.08251953 C6.74658203 4.45751953 6.74658203 4.45751953 6.93408203 7.20751953 C4.02793726 15.1611789 -4.05192724 21.43835848 -9.94091797 27.33251953 C-10.68664062 28.09048828 -11.43236328 28.84845703 -12.20068359 29.62939453 C-13.28446289 30.71607422 -13.28446289 30.71607422 -14.39013672 31.82470703 C-15.03684326 32.47552246 -15.6835498 33.12633789 -16.34985352 33.796875 C-18.26052147 35.46371653 -19.90132196 36.52434288 -22.25341797 37.45751953 C-25.03082177 37.25429486 -26.73723808 36.79570636 -29.06591797 35.27001953 C-30.89264126 32.48186293 -30.68329997 30.74775147 -30.25341797 27.45751953 C-28.42108339 25.02829662 -26.70958889 23.0711142 -24.55810547 20.96533203 C-23.9730423 20.3745285 -23.38797913 19.78372498 -22.78518677 19.17501831 C-21.54661399 17.93237027 -20.30046218 16.69723658 -19.04736328 15.46923828 C-17.13457344 13.58857163 -15.25589209 11.6780572 -13.37841797 9.76220703 C-12.16939954 8.55715358 -10.95852111 7.35396276 -9.74560547 6.15283203 C-9.18598114 5.58106232 -8.62635681 5.0092926 -8.04977417 4.42019653 C-5.37476942 1.83886259 -3.72827297 0.52429713 0 0 Z " fill="#0E89AE" transform="translate(223.25341796875,195.54248046875)"/>
<path d="M0 0 C2 2 2 2 2.46508789 5.72070312 C2.3228547 10.75123678 0.05727163 13.09376943 -3.44140625 16.46875 C-4.0019017 17.03452759 -4.56239716 17.60030518 -5.13987732 18.18322754 C-6.32483182 19.36923988 -7.51976063 20.54536088 -8.72387695 21.71191406 C-10.55944371 23.49702771 -12.35151929 25.31878991 -14.14257812 27.1484375 C-15.30230337 28.29928252 -16.46434006 29.44780389 -17.62890625 30.59375 C-18.16149551 31.13737183 -18.69408478 31.68099365 -19.24281311 32.24108887 C-22.14672802 35.00376021 -23.74320392 35.97251281 -27.77709961 36.40429688 C-31 36 -31 36 -32.9375 34.9375 C-34.64758159 31.81911592 -34.37525213 29.50575225 -34 26 C-32.25642918 23.54532505 -30.71049416 21.70269203 -28.59375 19.62890625 C-28.03562622 19.06171371 -27.47750244 18.49452118 -26.90246582 17.91014099 C-25.72068905 16.71924532 -24.52997541 15.5371599 -23.33105469 14.36352539 C-21.50668796 12.56907828 -19.72582678 10.73823766 -17.9453125 8.90039062 C-16.78886869 7.74497828 -15.63008664 6.59190057 -14.46875 5.44140625 C-13.94132202 4.89464737 -13.41389404 4.34788849 -12.8704834 3.78456116 C-8.63865625 -0.26828957 -5.81684307 -0.72710538 0 0 Z " fill="#127DA2" transform="translate(271,240)"/>
<path d="M0 0 C1.50889469 3.01778937 1.50026276 4.62322637 1 8 C-3.59325046 14.40870787 -9.74025027 19.89249843 -15.3125 25.4375 C-16.12267578 26.25154297 -16.93285156 27.06558594 -17.76757812 27.90429688 C-18.54166016 28.67708984 -19.31574219 29.44988281 -20.11328125 30.24609375 C-20.81235596 30.94404053 -21.51143066 31.6419873 -22.23168945 32.36108398 C-24.60960548 34.56499815 -25.6643267 34.97143206 -28.9375 35.25 C-32 35 -32 35 -33.8125 33.75 C-35.21205 31.68750526 -35.85264484 30.50503771 -36 28 C-33.86182867 23.77620563 -30.89127705 20.59870328 -27.5625 17.296875 C-27.04115479 16.77361633 -26.51980957 16.25035767 -25.98266602 15.71124268 C-24.88575699 14.61297914 -23.78634417 13.5172112 -22.68457031 12.42382812 C-20.99827605 10.74828704 -19.3229708 9.06228605 -17.6484375 7.375 C-16.57876606 6.30664943 -15.50847476 5.23891905 -14.4375 4.171875 C-13.93742432 3.66775085 -13.43734863 3.16362671 -12.92211914 2.64422607 C-8.29448034 -1.92141774 -6.03800353 -2.49395798 0 0 Z " fill="#156C90" transform="translate(334,223)"/>
<path d="M0 0 C3 2 3 2 3.875 4.3125 C4.08598364 8.84864832 1.47308999 11.46115031 -1.43261719 14.77075195 C-2.38119842 15.76584802 -3.33628982 16.75476783 -4.296875 17.73828125 C-4.80873352 18.26391159 -5.32059204 18.78954193 -5.84796143 19.33110046 C-6.92764313 20.43394694 -8.01028197 21.53390534 -9.09570312 22.63110352 C-10.74717468 24.3096284 -12.37309795 26.01058716 -14 27.71289062 C-15.0557926 28.78533203 -16.11303737 29.85634614 -17.171875 30.92578125 C-17.65130554 31.43506668 -18.13073608 31.94435211 -18.62469482 32.46907043 C-21.38738715 35.19694661 -22.82983544 35.98238644 -26.74316406 36.38745117 C-30 36 -30 36 -31.9375 34.875 C-33.63262266 31.88360708 -33.64407189 30.41358101 -33 27 C-28.35897909 20.60952651 -22.26987207 15.1175744 -16.6875 9.5625 C-15.87732422 8.74845703 -15.06714844 7.93441406 -14.23242188 7.09570312 C-13.45833984 6.32291016 -12.68425781 5.55011719 -11.88671875 4.75390625 C-11.18764404 4.05595947 -10.48856934 3.3580127 -9.76831055 2.63891602 C-6.59213047 -0.30484994 -4.2486987 -0.26012441 0 0 Z " fill="#12779D" transform="translate(288,178)"/>
</svg>
